<svg width="25" height="25" viewBox="0 0 25 25" fill="white" xmlns="http://www.w3.org/2000/svg">
    <g clip-path="url(#clip0_255_325)">
        <path d="M6.5 3.5H3.5V6.5C5.16 6.5 6.5 5.16 6.5 3.5ZM14.5 3.5H12.5C12.5 8.47 8.47 12.5 3.5 12.5V14.5C9.58 14.5 14.5 9.57 14.5 3.5ZM10.5 3.5H8.5C8.5 6.26 6.26 8.5 3.5 8.5V10.5C7.37 10.5 10.5 7.37 10.5 3.5ZM10.5 21.5H12.5C12.5 16.53 16.53 12.5 21.5 12.5V10.5C15.43 10.5 10.5 15.43 10.5 21.5ZM18.5 21.5H21.5V18.5C19.84 18.5 18.5 19.84 18.5 21.5ZM14.5 21.5H16.5C16.5 18.74 18.74 16.5 21.5 16.5V14.5C17.63 14.5 14.5 17.63 14.5 21.5Z" fill="black"/>
    </g>
    <defs>
        <clipPath id="clip0_255_325">
            <rect width="24" height="24" transform="translate(0.5 0.5)"/>
        </clipPath>
    </defs>
</svg>
