<svg xmlns="http://www.w3.org/2000/svg" viewBox="0 0 500 500"><defs><style>.cls-1{fill:none;}.cls-2{fill:#5fb2f9;}</style></defs><title>ads_tr</title><g id="Warstwa_2" data-name="Warstwa 2"><g id="background"><rect class="cls-1" width="500" height="500"/></g><g id="logo_icon_flat"><path class="cls-2" d="M312.09,262.6a35.94,35.94,0,0,1,26.11-10.68l.13,0a36.16,36.16,0,0,1,23.93,8.55V156.16a138.79,138.79,0,0,0-21.42-1.67c-.85,0-1.66.09-2.51.11q-44,.63-77.51,22.93,6,4.92,11.59,10.58C293.71,209.55,307,234.52,312.09,262.6Z"/><path class="cls-2" d="M376.48,71.37V291.62c0,1-.05,2-.11,2.92a38.54,38.54,0,0,1-11.1,25,36.26,36.26,0,0,1-26.94,11.61h-.13q-15.58,0-26.8-11.62a38.84,38.84,0,0,1-11.22-27.93v-.06c0-.82,0-1.63.07-2.44-.09-21.92-5.07-42.08-14.9-60.27a141,141,0,0,0-25.18-34q-4.94-5-10.12-9.33-35.69-30-82.93-30.87c-1,0-1.94-.07-2.93-.07q-59.67,0-100.34,39.48t-40.66,97.3c0,.09,0,.18,0,.27q.09,56.6,40.65,96.77t98,40.27q42.32,0,75.5-21.93-4.83-4.08-9.45-8.64c-22.2-22-35.88-47.77-40.85-76.92a36,36,0,0,1-25.47,10.05q-15.59,0-26.8-11.62a38.82,38.82,0,0,1-11.22-28h0q0-16.62,11.09-28.11a36,36,0,0,1,19.8-10.86,39.48,39.48,0,0,1,7.13-.64,36.19,36.19,0,0,1,23.34,8c.8.73,1.59,1.48,2.36,2.27a46.05,46.05,0,0,1,11.94,21.64,45.09,45.09,0,0,1,.65,7.72h0A143.35,143.35,0,0,0,202.68,320c4.55,25.39,16.49,47.47,36.2,67,3.18,3.15,10.8,9.74,11.29,10.15q34.93,29.17,81,31.31c2.35.11,4.73.16,7.12.17h.14c31.3,0,65.14-6.88,97.83-40.14s40.51-70.18,40.51-96.83h0V71.37Z"/></g></g></svg>